<svg xmlns="http://www.w3.org/2000/svg" width="117.333" height="74.667" version="1.0" viewBox="0 0 88 56"><g fill="#fff"><path d="M17.9 15.9c-2 2-2.9 3.9-2.9 6.1 0 4.3 4.7 9 9 9s9-4.7 9-9-4.7-9-9-9c-2.2 0-4.1.9-6.1 2.9M59.9 15.9c-2 2-2.9 3.9-2.9 6.1 0 4.3 4.7 9 9 9s9-4.7 9-9c0-2.2-.9-4.1-2.9-6.1S68.2 13 66 13s-4.1.9-6.1 2.9M38.5 23.1c-.8 1.2 4.4 10 6.2 10.6 1.4.5 7.5-8.5 7-10.2-.7-2.1-3.7-1.6-4.8.9-1.5 3.2-2.3 3.3-3.7.1-1.2-2.6-3.6-3.3-4.7-1.4M12.4 36.4c-2.3 1.9-2.8 3.2-2.8 7.2l-.1 4.9h29l-.1-4.9c0-4-.5-5.3-2.8-7.2C33.2 34.3 31.9 34 24 34s-9.2.3-11.6 2.4M53.9 37c-2.6 2.5-3 3.6-2.7 7.2l.3 4.3h29l.3-4.3c.3-3.6-.1-4.7-2.7-7.2-2.8-2.9-3.3-3-12.1-3s-9.3.1-12.1 3"/></g></svg>